<?xml version="1.0" standalone="no"?>
<!DOCTYPE svg PUBLIC "-//W3C//DTD SVG 20010904//EN"
 "http://www.w3.org/TR/2001/REC-SVG-20010904/DTD/svg10.dtd">
<svg version="1.0" xmlns="http://www.w3.org/2000/svg"
 width="974.000000pt" height="974.000000pt" viewBox="0 0 974.000000 974.000000"
 preserveAspectRatio="xMidYMid meet">
<metadata>
Created by potrace 1.14, written by Peter Selinger 2001-2017
</metadata>
<g transform="translate(0.000000,974.000000) scale(0.100000,-0.100000)"
fill="#000000" stroke="none">
<path d="M4868 8086 c-1 -2 -46 -7 -98 -10 -137 -10 -286 -25 -320 -31 -8 -1
-40 -6 -70 -10 -30 -3 -71 -10 -90 -15 -19 -5 -48 -11 -65 -14 -59 -10 -287
-63 -315 -73 -8 -3 -19 -7 -25 -8 -101 -24 -434 -138 -540 -184 -11 -5 -42
-19 -70 -31 -142 -62 -285 -136 -450 -230 -51 -29 -266 -175 -291 -198 -10 -9
-39 -33 -64 -52 -78 -60 -136 -116 -296 -284 -16 -18 -46 -55 -65 -82 -19 -27
-37 -51 -40 -54 -12 -10 -48 -87 -68 -146 -44 -131 -46 -248 -7 -413 12 -51
75 -168 119 -222 25 -31 83 -87 129 -125 90 -74 145 -129 187 -184 14 -19 28
-37 31 -40 24 -21 150 -268 150 -293 0 -7 4 -17 9 -22 7 -8 40 -98 46 -125 1
-3 8 -25 15 -50 7 -25 14 -47 15 -50 2 -6 13 -52 26 -105 15 -68 39 -216 44
-285 10 -114 4 -390 -8 -465 -3 -16 -8 -50 -11 -75 -3 -25 -8 -56 -11 -70 -3
-14 -7 -36 -10 -50 -2 -14 -11 -53 -20 -87 -9 -35 -18 -71 -20 -80 -1 -10 -8
-38 -15 -63 -7 -25 -13 -52 -15 -61 -2 -9 -18 -69 -35 -134 -17 -65 -33 -125
-35 -134 -7 -35 -56 -194 -101 -331 -26 -80 -48 -147 -49 -150 0 -3 -7 -16
-15 -30 -7 -14 -13 -27 -13 -30 1 -17 -108 -284 -119 -288 -4 -2 -8 -13 -8
-24 0 -21 52 -77 135 -143 28 -22 55 -43 60 -48 58 -46 182 -137 188 -137 4 0
17 -9 29 -20 12 -11 28 -20 35 -20 7 0 13 -4 13 -10 0 -5 6 -10 14 -10 8 0 16
-4 18 -9 8 -22 381 -224 538 -291 41 -18 89 -38 105 -45 97 -42 362 -133 440
-151 6 -1 46 -12 90 -24 44 -12 89 -23 100 -25 11 -1 52 -10 90 -18 39 -8 90
-18 115 -22 59 -9 68 -10 115 -18 22 -4 63 -9 90 -12 28 -4 75 -9 105 -12 69
-8 584 -8 665 0 33 3 89 9 125 12 36 4 79 8 95 10 17 3 50 7 75 10 25 3 59 9
75 14 17 4 42 7 58 7 15 -1 27 3 27 8 0 5 2 7 5 4 4 -3 25 -1 48 4 23 5 56 12
72 14 44 8 64 12 130 29 33 9 71 18 85 21 14 2 32 7 40 10 8 3 25 8 36 10 32
6 344 111 389 131 22 9 42 17 45 18 12 4 49 20 100 43 30 14 57 26 60 27 17 4
146 70 148 77 2 4 12 8 23 8 10 0 19 5 19 10 0 6 4 10 9 10 23 0 262 151 386
245 140 105 331 282 359 333 5 9 12 19 16 22 17 12 103 155 134 222 69 149
155 435 189 633 3 17 10 55 16 85 5 30 12 72 16 93 3 20 8 54 11 75 9 51 12
73 13 97 1 12 14 28 30 38 28 16 32 16 105 -7 42 -14 100 -28 129 -32 67 -10
237 -11 307 -2 138 19 304 84 442 175 92 60 104 70 210 173 104 101 195 218
275 355 13 23 56 107 57 115 1 3 9 21 18 40 8 19 21 49 27 65 6 17 16 44 22
60 7 17 13 37 15 45 1 8 8 35 14 60 13 49 17 68 26 120 4 19 8 44 11 55 12 61
18 170 17 325 -1 139 -6 196 -23 280 -12 57 -28 111 -34 119 -7 8 -11 16 -10
17 5 8 -10 65 -18 70 -5 3 -7 10 -4 15 4 5 1 9 -4 9 -6 0 -11 6 -11 14 0 16
-50 113 -82 158 -10 14 -18 31 -18 36 0 6 -3 12 -7 14 -5 2 -32 31 -60 65 -68
79 -131 143 -143 143 -4 0 -10 3 -12 8 -1 4 -32 29 -68 55 -36 27 -72 53 -81
60 -17 13 -16 12 -139 88 -47 29 -93 59 -102 67 -10 8 -18 12 -18 8 0 -4 -12
1 -27 12 -30 20 -199 104 -208 102 -3 0 -18 6 -34 15 -64 33 -184 66 -321 90
-70 12 -171 8 -259 -10 -86 -17 -191 -106 -235 -198 -28 -61 -35 -86 -43 -174
-3 -35 -9 -63 -13 -63 -3 0 -29 14 -56 32 -111 73 -183 171 -259 353 -85 205
-201 376 -366 543 -31 31 -65 64 -76 72 -10 8 -41 34 -68 56 -107 89 -400 260
-490 286 -11 4 -65 23 -120 43 -95 35 -404 118 -422 113 -4 -1 -33 3 -63 10
-30 6 -73 13 -95 16 -22 3 -56 7 -75 10 -89 13 -218 19 -497 22 -165 1 -303 1
-305 0z"/>
<path d="M1115 6463 c-33 -7 -67 -16 -75 -20 -8 -3 -17 -7 -20 -8 -144 -37
-368 -181 -518 -334 -218 -222 -407 -562 -458 -824 -2 -10 -5 -26 -8 -35 -3
-9 -8 -35 -11 -57 -4 -22 -9 -53 -12 -70 -2 -16 -6 -109 -8 -205 -2 -132 2
-203 16 -290 24 -155 26 -164 74 -330 17 -57 75 -202 86 -214 5 -6 9 -15 9
-22 0 -16 95 -187 147 -262 23 -35 43 -66 43 -68 0 -3 6 -11 13 -18 6 -7 30
-35 52 -62 52 -63 138 -156 194 -208 24 -23 56 -52 70 -66 14 -14 58 -52 96
-85 39 -33 72 -63 73 -67 2 -5 9 -8 16 -8 7 0 21 -9 31 -20 24 -26 176 -129
245 -166 30 -16 57 -32 58 -36 2 -5 9 -8 15 -8 6 0 38 -11 72 -24 86 -35 118
-41 215 -41 83 0 140 14 168 42 7 7 19 16 26 20 46 29 96 141 102 228 11 188
14 227 24 295 6 41 13 93 16 115 3 22 9 60 14 85 5 25 12 61 15 80 5 39 13 83
20 120 3 14 8 39 10 55 3 17 8 41 10 55 3 14 8 39 11 55 2 17 20 109 39 205
19 96 37 191 40 210 3 19 8 42 10 50 2 8 7 31 10 50 3 19 12 67 20 105 7 39
16 88 20 110 3 23 8 52 11 65 13 65 13 278 -1 343 -30 142 -79 218 -265 407
-131 135 -177 194 -216 278 -23 51 -60 170 -70 230 -4 23 -18 82 -27 117 -12
44 -33 95 -50 120 -26 38 -63 75 -77 75 -5 0 -10 4 -10 8 0 12 -97 36 -155 37
-27 1 -77 -4 -110 -12z"/>
</g>
</svg>
