<svg xmlns="http://www.w3.org/2000/svg" viewBox="0 0 269.29 133.23"><defs><style>.cls-1{fill:#02559f;}.cls-2{fill:#417fb8;}.cls-3{fill:#8fbae4;}</style></defs><g id="Ebene_1" data-name="Ebene 1"><path class="cls-1" d="M17,111.46a19.51,19.51,0,0,1-4.86-.62A15.11,15.11,0,0,1,7.75,109a11.06,11.06,0,0,1-3.26-3.13A9.12,9.12,0,0,1,3,101.42h7.82a4.72,4.72,0,0,0,1.12,2.23A5.27,5.27,0,0,0,14,105a8.07,8.07,0,0,0,2.91.49,11.15,11.15,0,0,0,2.91-.36A5.05,5.05,0,0,0,22,104a2.6,2.6,0,0,0,.84-2,2.24,2.24,0,0,0-.76-1.76,5.62,5.62,0,0,0-2-1.06,23.35,23.35,0,0,0-2.68-.66l-5.3-1a10.42,10.42,0,0,1-5.92-3,8.9,8.9,0,0,1-2.3-6.27,8.52,8.52,0,0,1,1.7-5.45,11.12,11.12,0,0,1,4.68-3.49,17,17,0,0,1,6.54-1.21,18.09,18.09,0,0,1,7.28,1.3A10.24,10.24,0,0,1,28.64,83a9.25,9.25,0,0,1,1.59,5.16H22.62a4.29,4.29,0,0,0-.9-2.38,4.06,4.06,0,0,0-1.94-1.29,8.76,8.76,0,0,0-2.8-.4,8.67,8.67,0,0,0-2.24.26,4.85,4.85,0,0,0-1.57.71,2.93,2.93,0,0,0-.93,1,2.68,2.68,0,0,0-.31,1.27,2.61,2.61,0,0,0,.82,2,6.85,6.85,0,0,0,3.16,1.27l5.27,1a13.88,13.88,0,0,1,5.1,1.8,8.76,8.76,0,0,1,2.79,2.72,8.88,8.88,0,0,1,1.18,3A16.93,16.93,0,0,1,30.5,102a7.51,7.51,0,0,1-1.74,4.83A11.51,11.51,0,0,1,24,110.22,18.56,18.56,0,0,1,17,111.46Z"/><path class="cls-2" d="M49,111.46a14,14,0,0,1-7.5-2,12.75,12.75,0,0,1-4.89-5.67,21.39,21.39,0,0,1-1.72-9,21.5,21.5,0,0,1,1.73-9.06,12.93,12.93,0,0,1,4.91-5.72,13.84,13.84,0,0,1,7.47-2,13.76,13.76,0,0,1,7.45,2,12.69,12.69,0,0,1,4.85,5.7A21.82,21.82,0,0,1,63,94.84a21.4,21.4,0,0,1-1.7,9,12.63,12.63,0,0,1-4.83,5.67A13.92,13.92,0,0,1,49,111.46Zm0-3.62a9.25,9.25,0,0,0,5.12-1.37,8.55,8.55,0,0,0,3.22-4.24,20.68,20.68,0,0,0,1.11-7.35,21,21,0,0,0-1.12-7.45,8.83,8.83,0,0,0-3.23-4.33A9.06,9.06,0,0,0,49,81.7a9,9,0,0,0-5.1,1.42,8.85,8.85,0,0,0-3.28,4.33,20.65,20.65,0,0,0-1.14,7.43,20.18,20.18,0,0,0,1.14,7.35,8.64,8.64,0,0,0,3.28,4.24A9.25,9.25,0,0,0,49,107.84Z"/><path class="cls-2" d="M81.53,78.08a12.64,12.64,0,0,1,6.08,1.43,11.83,11.83,0,0,1,4.27,3.81,11.21,11.21,0,0,1,1.91,5.23H89.36A9.37,9.37,0,0,0,88,85.09a7.49,7.49,0,0,0-2.65-2.47,7.93,7.93,0,0,0-3.93-.92,8.63,8.63,0,0,0-5,1.38,8.4,8.4,0,0,0-3.08,4.26,22,22,0,0,0-1,7.36q0,6.78,2.32,10a7.87,7.87,0,0,0,6.77,3.18A7.39,7.39,0,0,0,88,104.29a10,10,0,0,0,1.37-3.5h4.43a13.74,13.74,0,0,1-1.12,4,11.44,11.44,0,0,1-2.36,3.42,10.92,10.92,0,0,1-3.7,2.38,13.68,13.68,0,0,1-5.08.88,13.48,13.48,0,0,1-7.47-2,12.68,12.68,0,0,1-4.72-5.75,22.76,22.76,0,0,1-1.63-9,22.35,22.35,0,0,1,1.62-9A12.18,12.18,0,0,1,74,80,13.71,13.71,0,0,1,81.53,78.08Z"/><path class="cls-2" d="M100.5,78.53h4.16V111H100.5Z"/><path class="cls-2" d="M110.76,111l11.77-32.48h4.69L139,111h-4.25l-3.18-8.87H118.26L115,111Zm8.56-12.71h11.09l-5.5-15.66Z"/><path class="cls-2" d="M145.12,78.53h4.25v28.75H164.7V111H145.1Z"/><path class="cls-1" d="M179.59,111V78.53H192q6.6,0,9.7,2.21a7.31,7.31,0,0,1,3.1,6.35,7.24,7.24,0,0,1-1.18,4.08,10.06,10.06,0,0,1-4.26,3.17,10,10,0,0,1,3.32,1.49,6.64,6.64,0,0,1,1.86,2,7.07,7.07,0,0,1,.82,2.21,12.47,12.47,0,0,1,.2,2.15q0,4.51-3,6.67T192.6,111Zm7.66-19.43h5.86a6,6,0,0,0,1.69-.22,4,4,0,0,0,1.34-.68,3.43,3.43,0,0,0-.06-5.36,5.49,5.49,0,0,0-3.33-1h-5.5Zm0,13.61h5.59a5.35,5.35,0,0,0,3.67-1.11,3.51,3.51,0,0,0,1.25-2.75,3.43,3.43,0,0,0-.59-2,3.87,3.87,0,0,0-1.64-1.3,5.9,5.9,0,0,0-2.42-.47h-5.86Z"/><path class="cls-2" d="M223.83,111.46a14,14,0,0,1-7.5-2,12.67,12.67,0,0,1-4.88-5.67,21.24,21.24,0,0,1-1.72-9,21.5,21.5,0,0,1,1.73-9.06,12.86,12.86,0,0,1,4.91-5.72,15.08,15.08,0,0,1,14.92,0,12.82,12.82,0,0,1,4.85,5.7,21.82,21.82,0,0,1,1.71,9.09,21.56,21.56,0,0,1-1.7,9,12.59,12.59,0,0,1-4.84,5.67A13.92,13.92,0,0,1,223.83,111.46Zm0-3.62a9.2,9.2,0,0,0,5.12-1.37,8.56,8.56,0,0,0,3.23-4.24,20.68,20.68,0,0,0,1.11-7.35,20.93,20.93,0,0,0-1.13-7.45,8.71,8.71,0,0,0-3.23-4.33,9.06,9.06,0,0,0-5.1-1.4,8.94,8.94,0,0,0-5.09,1.42,8.79,8.79,0,0,0-3.28,4.33,20.41,20.41,0,0,0-1.15,7.43,20,20,0,0,0,1.15,7.35,8.58,8.58,0,0,0,3.28,4.24A9.24,9.24,0,0,0,223.83,107.84Z"/><path class="cls-2" d="M241.75,82.35V78.53h24.57v3.82h-9.9V111h-4.18V82.35Z"/><path class="cls-1" d="M63.66,113.93H75.4v3.23h-7.8v3.58h6.64v3.15H67.59v6.65H63.66Z"/><path class="cls-2" d="M90.34,130.54H88.09l-3-7.16H80.58v7.16H78.46V113.93h6.43a7.15,7.15,0,0,1,3,.55,3.8,3.8,0,0,1,1.8,1.56,4.71,4.71,0,0,1,.6,2.43,4.87,4.87,0,0,1-.47,2.25,4.22,4.22,0,0,1-1.22,1.44,6.18,6.18,0,0,1-1.52.84Zm-6.14-8.91a4.77,4.77,0,0,0,2.9-.77,2.65,2.65,0,0,0,1-2.27,2.61,2.61,0,0,0-.91-2.19,3.93,3.93,0,0,0-2.5-.72H80.58v5.95Z"/><path class="cls-2" d="M92.83,130.54l6-16.61h2.4l6,16.61h-2.17L103.46,126H96.67L95,130.54Zm4.38-6.5h5.67l-2.81-8Z"/><path class="cls-2" d="M110.39,130.54V113.93h3l5,13.72,5.08-13.72h2.93v16.61h-2.19V117.11l-4.82,13.43h-2l-4.78-13.3v13.3Z"/><path class="cls-2" d="M130.74,130.54V113.93h10.48l0,1.87h-8.32v5.42h7.5v1.87h-7.52v5.53l8.57,0v1.89Z"/><path class="cls-2" d="M164.26,113.93l-4.85,16.61h-2l-3.64-12.88-3.7,12.88H148.2l-4.79-16.61h2.15l3.67,13.22L153,113.93h1.67l3.73,13.22,3.74-13.22Z"/><path class="cls-2" d="M172.74,130.77a7.13,7.13,0,0,1-3.84-1,6.49,6.49,0,0,1-2.5-2.9,12.5,12.5,0,0,1,0-9.24,6.56,6.56,0,0,1,2.51-2.92,7.12,7.12,0,0,1,3.82-1,7,7,0,0,1,3.81,1,6.61,6.61,0,0,1,2.48,2.92,11.21,11.21,0,0,1,.88,4.65,11,11,0,0,1-.87,4.6,6.39,6.39,0,0,1-2.48,2.9A7,7,0,0,1,172.74,130.77Zm0-1.85a4.7,4.7,0,0,0,2.62-.7,4.37,4.37,0,0,0,1.65-2.17,13,13,0,0,0,0-7.57,4.44,4.44,0,0,0-1.65-2.21,4.54,4.54,0,0,0-6.9,2.22,10.55,10.55,0,0,0-.58,3.8,10.28,10.28,0,0,0,.58,3.76,4.42,4.42,0,0,0,1.68,2.17A4.71,4.71,0,0,0,172.74,128.92Z"/><path class="cls-2" d="M195.22,130.54H193l-3-7.16h-4.46v7.16h-2.13V113.93h6.43a7.15,7.15,0,0,1,3,.55,3.75,3.75,0,0,1,1.8,1.56,4.71,4.71,0,0,1,.6,2.43,4.87,4.87,0,0,1-.47,2.25,4.22,4.22,0,0,1-1.22,1.44A6.18,6.18,0,0,1,192,123Zm-6.14-8.91a4.77,4.77,0,0,0,2.9-.77,2.65,2.65,0,0,0,1-2.27,2.61,2.61,0,0,0-.91-2.19,3.93,3.93,0,0,0-2.5-.72h-4.12v5.95Z"/><path class="cls-2" d="M211.55,130.54h-2.4L204,122l-2.88,3.29v5.24h-2.21V113.93h2.21v8.59l7.44-8.59h2.54l-5.55,6.52Z"/></g><g id="Ebene_2" data-name="Ebene 2"><path class="cls-1" d="M70.14,33.79l.13.1a9.77,9.77,0,0,1,2.67,3,20.21,20.21,0,0,1,1.42,15.31,60.07,60.07,0,0,1-3.64,11.07,35.49,35.49,0,0,0,22,9.1l.76,0c3.17.07,15.73-.19,24.49-8.41a11.19,11.19,0,0,0,2.85-4.25A36.42,36.42,0,0,0,122.74,51s5.29,2.91,10.77-2.19a14.51,14.51,0,0,0,4.32-8.09c.65-3.69.5-8.91-4.17-12.32-7.89-5.77-13.35-5.16-13.35,0,0,0-1.66-.46-2.73-3S112.12,12,90.13,14.76c0,0-13.82,1.76-20.84,10.54A6.07,6.07,0,0,0,70.14,33.79Z"/><path class="cls-1" d="M55.91,56.26c7.93,7.59,10.76,4.55,10.76,1.92s1.25-8.31,2.24-13.66-.52-6.05-3.15-8.78-.7-6.68-4.55-6.88c0,0-4.57.12-8.33,5.66a15.27,15.27,0,0,0-2.66,9.56A18.09,18.09,0,0,0,55.91,56.26Z"/><path class="cls-1" d="M114.67,63.86a13.66,13.66,0,0,0,4.49-6.33c4.65-13.6-1.52-27.86-1.52-27.86-5.36-12.94-20.53-13-20.53-13a48.34,48.34,0,0,0-20.43,4.45c-12.16,6.1-6.41,12.81-6.41,12.81a9.77,9.77,0,0,1,2.67,3,20.21,20.21,0,0,1,1.42,15.31,60.07,60.07,0,0,1-3.64,11.07,35.49,35.49,0,0,0,22,9.1l.76,0h0A43,43,0,0,0,114.67,63.86Z"/><path class="cls-1" d="M133.66,28.41c-7.89-5.77-13.35-5.16-13.35,0,0,0-1.66-.46-2.73-3S112.12,12,90.13,14.76c0,0-13.82,1.76-20.84,10.54a6.07,6.07,0,0,0,.85,8.49l.13.1s-5.75-6.71,6.41-12.81a48.34,48.34,0,0,1,20.43-4.45s15.17.1,20.53,13c0,0,6.17,14.26,1.52,27.86a13.66,13.66,0,0,1-4.49,6.33,43,43,0,0,1-21.2,8.56h0c3.17.07,15.73-.19,24.49-8.41a11.19,11.19,0,0,0,2.85-4.25A36.42,36.42,0,0,0,122.74,51s5.29,2.91,10.77-2.19a14.51,14.51,0,0,0,4.32-8.09C138.48,37,138.33,31.82,133.66,28.41Z"/><path class="cls-1" d="M61.21,28.86s-4.57.12-8.33,5.66a15.27,15.27,0,0,0-2.66,9.56,18.09,18.09,0,0,0,5.69,12.18c7.93,7.59,10.76,4.55,10.76,1.92s1.25-8.31,2.24-13.66-.52-6.05-3.15-8.78S65.06,29.06,61.21,28.86Z"/><path class="cls-1" d="M61.2,31.86a1.1,1.1,0,0,1,1.16,1,3.62,3.62,0,0,0,1.28,2.66c1.72,1.41,5.56,3.84,3.84,10.21s-1.41,10.61-1.82,12.43-7.07,1.16-11.22-7.78C50.5,41.94,54.11,32.18,61.2,31.86Z"/><path class="cls-1" d="M79.72,50.6c-2.23-.1.4-1.52.71-7.23S80,34.22,78.1,31.49,89.93,26,102,26.94s14.33,4.55,14.33,4.55a6.5,6.5,0,0,0-4.4-4.1c-7-2-25.16-6-36,1.37a1.87,1.87,0,0,0-.64,2.3c1.51,3,5.06,7.9,1.37,18.43,0,0-1.5,3.94,1.53,3.94s19.25-.15,25.93-1.21c1.36-.22,2.71-.42,4-.61h0C96.49,52.21,81.94,50.7,79.72,50.6Z"/><path class="cls-1" d="M116.29,31.49S114,27.85,102,26.94,76.18,28.76,78.1,31.49s2.63,6.17,2.33,11.88-2.94,7.13-.71,7.23,16.77,1.61,28.35,1h0c5-.73,8.91-1.21,8.91-1.21S118.9,39.07,116.29,31.49Z"/><path class="cls-1" d="M126.16,27.51a3.18,3.18,0,0,0-3.61,2.33,5.56,5.56,0,0,0,.14,2.76c1.11,4,3.19,14.06.78,17.8,0,0,7.82-.2,10.95-7C137.36,37,134.25,28.82,126.16,27.51Z"/><path class="cls-1" d="M181.69,2.46C161,2.46,144.27,13,144.27,25.91c0,6.54,4.28,12.46,11.19,16.71L139.09,54l28.39-6.39a57.08,57.08,0,0,0,14.21,1.75c20.66,0,37.41-10.49,37.41-23.44S202.35,2.46,181.69,2.46Z"/><ellipse class="cls-3" cx="87.92" cy="38.93" rx="2.91" ry="8.33"/><ellipse class="cls-3" cx="107.66" cy="38.93" rx="2.91" ry="8.33"/></g></svg>