<svg id="Ebene_1" data-name="Ebene 1" xmlns="http://www.w3.org/2000/svg" viewBox="0 0 486.7 321.69"><defs><style>.cls-1{fill:#02559f;}.cls-2{fill:#8fbae4;}</style></defs><path class="cls-1" d="M497.79,241.37c3.62-20.44,2.79-49.33-23.06-68.22-43.66-31.9-73.88-28.54-73.88,0,0,0-9.24-2.52-15.12-16.79s-30.22-73.89-152-58.77c0,0-76.53,9.75-115.39,58.34-11.46,14.32-9.56,35.51,4.73,47l.72.57c6,4.62,11.2,10,14.76,16.68,8.37,15.63,19.06,45.6,7.87,84.77,0,0-8.4,37.78-20.15,61.29,0,0,45.33,46.18,121.74,50.38" transform="translate(-12.65 -95.15)"/><path class="cls-1" d="M252.23,416.8c17.58.41,87.08-1.07,135.59-46.53a62.34,62.34,0,0,0,15.75-23.53c3.78-10.08,8.19-25.82,10.71-48.49,0,0,29.29,16.14,59.62-12.1a80.16,80.16,0,0,0,23.89-44.78" transform="translate(-12.65 -95.15)"/><path class="cls-1" d="M44.29,327.36c43.94,42,59.62,25.19,59.62,10.63s6.87-46,12.39-75.62-2.88-33.52-17.43-48.64S95,176.79,73.68,175.67c0,0-25.3.67-46.13,31.35A84.48,84.48,0,0,0,12.81,259.9,100.35,100.35,0,0,0,44.29,327.36Z" transform="translate(-12.65 -95.15)"/><path class="cls-1" d="M252.23,416.8c58.24-7.51,97.19-31.46,117.39-47.38a76,76,0,0,0,24.84-35.06C420.18,259.08,386,180.15,386,180.15c-29.66-71.65-113.62-72.21-113.62-72.21-66.12.15-113.07,24.63-113.07,24.63-67.33,33.8-35.5,71-35.5,71,6,4.62,11.2,10,14.76,16.68,8.37,15.63,19.06,45.6,7.87,84.77,0,0-8.4,37.78-20.15,61.29,0,0,45.33,46.18,121.74,50.38" transform="translate(-12.65 -95.15)"/><path class="cls-1" d="M497.79,241.37c3.62-20.44,2.79-49.33-23.06-68.22-43.66-31.9-73.88-28.54-73.88,0,0,0-9.24-2.52-15.12-16.79s-30.22-73.89-152-58.77c0,0-76.53,9.75-115.39,58.34-11.46,14.32-9.56,35.51,4.73,47l.72.57s-31.83-37.15,35.5-71c0,0,47-24.48,113.07-24.63,0,0,84,.56,113.62,72.21,0,0,34.17,78.93,8.45,154.21a76,76,0,0,1-24.84,35.06c-20.2,15.92-59.15,39.87-117.39,47.38" transform="translate(-12.65 -95.15)"/><path class="cls-1" d="M252.23,416.8c17.58.41,87.08-1.07,135.59-46.53a62.34,62.34,0,0,0,15.75-23.53c3.78-10.08,8.19-25.82,10.71-48.49,0,0,29.29,16.14,59.62-12.1a80.16,80.16,0,0,0,23.89-44.78" transform="translate(-12.65 -95.15)"/><path class="cls-1" d="M73.68,175.67s-25.3.67-46.13,31.35A84.48,84.48,0,0,0,12.81,259.9a100.35,100.35,0,0,0,31.48,67.46c43.94,42,59.62,25.19,59.62,10.63s6.87-46,12.39-75.62-2.88-33.52-17.43-48.64S95,176.79,73.68,175.67Z" transform="translate(-12.65 -95.15)"/><path class="cls-1" d="M73.62,192.26A6.12,6.12,0,0,1,80,197.93a19.85,19.85,0,0,0,7.07,14.68c9.52,7.84,30.79,21.27,21.27,56.54S100.55,327.92,98.31,338s-39.13,6.37-62.13-43.1C14.4,248.05,34.37,194.06,73.62,192.26Z" transform="translate(-12.65 -95.15)"/><path class="cls-1" d="M176.11,296c-12.31-.56,2.24-8.39,3.92-40s-2.24-50.66-12.87-65.77S232.64,160,299.25,165s79.34,25.19,79.34,25.19a36,36,0,0,0-24.39-22.7c-38.49-10.87-139.26-33.45-199.21,7.59-4,2.72-5.7,8.4-3.54,12.71,8.37,16.71,28,43.74,7.59,102,0,0-8.31,21.83,8.44,21.83S274.07,310.85,311,305c7.56-1.2,15-2.33,22.08-3.37h0C269,304.94,188.43,296.57,176.11,296Z" transform="translate(-12.65 -95.15)"/><path class="cls-1" d="M378.59,190.23S365.86,170.07,299.25,165s-142.73,10.09-132.09,25.19S181.71,224.38,180,256s-16.23,39.45-3.92,40,92.85,8.93,157,5.59h0c27.5-4.05,49.28-6.71,49.28-6.71S393,232.19,378.59,190.23Z" transform="translate(-12.65 -95.15)"/><path class="cls-1" d="M433.21,168.2c-8.91-1.45-17.94,4.11-20,12.91-.92,4-1,9,.77,15.27,6.16,22.39,17.64,77.8,4.34,98.51,0,0,43.24-1.1,60.59-38.89C495.21,220.53,478,175.45,433.21,168.2Z" transform="translate(-12.65 -95.15)"/><ellipse class="cls-2" cx="208.89" cy="136.28" rx="16.12" ry="46.13"/><ellipse class="cls-2" cx="318.13" cy="136.28" rx="16.12" ry="46.13"/></svg>